<svg width="332" height="107" viewBox="0 0 332 107" fill="none" xmlns="http://www.w3.org/2000/svg">
<path d="M53.1328 2.77625C54.1484 1.79968 55.0664 1.13562 55.8867 0.784058C56.7461 0.393433 57.6445 0.19812 58.582 0.19812C59.5586 0.19812 60.4766 0.393433 61.3359 0.784058C62.1953 1.13562 62.9375 1.6239 63.5625 2.2489C64.9297 3.53796 65.6133 5.13953 65.6133 7.05359V63.6552C65.6133 68.4208 63.875 72.5028 60.3984 75.9012C56.9609 79.2997 52.8594 80.9989 48.0938 80.9989H37.7227C36.2383 80.9989 34.9688 80.4911 33.9141 79.4755C32.8984 78.4598 32.3906 77.2098 32.3906 75.7255C32.3906 74.2411 32.8984 72.9911 33.9141 71.9755C34.9688 70.9208 36.2383 70.3934 37.7227 70.3934H44.6367C47.7227 70.3934 49.8906 69.0067 51.1406 66.2333C51.4922 65.3739 51.668 64.4755 51.668 63.538V55.5106C51.668 54.7684 51.4531 54.2802 51.0234 54.0458C50.6328 53.7723 50.2422 53.6356 49.8516 53.6356C49.4609 53.6356 49.1094 53.8114 48.7969 54.163L47.8008 55.1005C45.1445 57.7567 42.0586 59.0848 38.543 59.0848C34.3633 59.0848 30.8672 57.3856 28.0547 53.9872C25.2812 50.6278 23.8945 46.5458 23.8945 41.7411V11.9169H21.3164C19.4414 11.9169 18.0156 12.4247 17.0391 13.4403C15.4375 15.1591 14.6367 16.9755 14.6367 18.8895V22.2294C14.6367 25.2762 13.2109 27.3856 10.3594 28.5575C9.5 28.9091 8.58203 29.0848 7.60547 29.0848C6.66797 29.0848 5.76953 28.9091 4.91016 28.5575C4.08984 28.2059 3.36719 27.7177 2.74219 27.0927C1.41406 25.7645 0.75 24.1434 0.75 22.2294V18.7137C0.75 13.9091 2.46875 9.82703 5.90625 6.46765C9.34375 3.06921 13.4062 1.37 18.0938 1.37H30.8086C32.6836 1.37 34.1289 1.85828 35.1445 2.83484C36.9023 4.51453 37.7812 6.3114 37.7812 8.22546V41.5653C37.7812 43.4794 38.2891 44.9442 39.3047 45.9598C41.0234 47.6786 42.5859 48.538 43.9922 48.538C45.4375 48.538 46.5703 48.4012 47.3906 48.1278C48.2109 47.8153 48.9531 47.3856 49.6172 46.8387C50.9844 45.6669 51.668 44.1434 51.668 42.2684V7.05359C51.668 5.13953 52.1562 3.71375 53.1328 2.77625ZM112.957 23.2255C113.582 22.4442 114.148 21.6434 114.656 20.8231C115.164 19.9637 115.418 18.9872 115.418 17.8934C115.418 16.7997 115.223 15.8427 114.832 15.0223C114.441 14.163 113.895 13.4208 113.191 12.7958C111.668 11.4286 109.734 10.745 107.391 10.745C105.047 10.745 103.191 11.4286 101.824 12.7958C100.496 14.1239 99.832 15.7645 99.832 17.7177V65.2958C99.832 67.288 100.496 68.8309 101.824 69.9247C103.152 70.9794 104.793 71.5067 106.746 71.5067C108.699 71.5067 110.34 70.9794 111.668 69.9247C112.996 68.8309 113.66 67.288 113.66 65.2958V55.2177C113.66 53.2645 114.148 51.7997 115.125 50.8231C116.805 49.1434 118.367 48.3036 119.812 48.3036C121.258 48.3036 122.41 48.4794 123.27 48.8309C124.129 49.1825 124.871 49.6708 125.496 50.2958C126.863 51.663 127.547 53.3036 127.547 55.2177V89.3778C127.547 94.1825 125.867 98.2645 122.508 101.624C119.109 105.022 115.047 106.722 110.32 106.722H103.406C101.922 106.722 100.672 106.214 99.6562 105.198C98.6406 104.182 98.1328 102.932 98.1328 101.448C98.1328 100.003 98.6406 98.7528 99.6562 97.6981C100.672 96.6434 101.922 96.1161 103.406 96.1161H106.746C108.66 96.1161 110.125 95.6473 111.141 94.7098C112.82 93.0692 113.66 91.2528 113.66 89.2606V78.5966C113.66 77.8544 113.445 77.3661 113.016 77.1317C112.625 76.8583 112.234 76.7216 111.844 76.7216C111.453 76.7216 111.102 76.8973 110.789 77.2489L109.793 78.1864C107.137 80.8427 104.09 82.1708 100.652 82.1708C96.4727 82.1708 92.9766 80.452 90.1641 77.0145C87.3516 73.6552 85.9453 69.5927 85.9453 64.827V17.4247C85.9453 12.1512 87.7422 7.99109 91.3359 4.94421C95.0859 1.78015 100.223 0.19812 106.746 0.19812C113.465 0.19812 118.719 1.78015 122.508 4.94421C126.258 8.03015 128.133 12.2098 128.133 17.4833C128.133 25.7255 126.023 31.2919 121.805 34.1825C120.516 35.0809 119.207 35.5302 117.879 35.5302C116.59 35.5302 115.516 35.3544 114.656 35.0028C113.836 34.6512 113.113 34.163 112.488 33.538C111.16 32.288 110.496 30.8622 110.496 29.2606C110.496 27.6591 110.75 26.4481 111.258 25.6278C111.766 24.7684 112.332 23.9677 112.957 23.2255ZM146.727 71.3114C148.159 71.3114 149.396 71.8322 150.438 72.8739C151.479 73.9156 152 74.9703 152 76.038C152 77.1057 151.857 77.952 151.57 78.577C151.284 79.202 150.906 79.7489 150.438 80.2177C149.396 81.2593 148.159 81.7802 146.727 81.7802C145.294 81.7802 144.057 81.2593 143.016 80.2177C141.974 79.176 141.453 78.1343 141.453 77.0927C141.453 75.3218 141.974 73.9156 143.016 72.8739C144.057 71.8322 145.294 71.3114 146.727 71.3114Z" fill="white"/>
<path d="M171.102 80.1005C170.451 80.7255 169.839 81.1552 169.266 81.3895C168.719 81.6499 168.12 81.7802 167.469 81.7802C166.844 81.7802 166.245 81.663 165.672 81.4286C165.125 81.1942 164.643 80.8687 164.227 80.452C163.315 79.5406 162.859 78.4598 162.859 77.2098V43.2645C162.859 41.9885 163.198 40.9989 163.875 40.2958C164.969 39.1499 166.01 38.577 167 38.577C168.016 38.577 168.758 38.6942 169.227 38.9286C169.721 39.1369 170.138 39.3843 170.477 39.6708C170.971 40.0874 171.31 40.5171 171.492 40.9598C171.701 41.3765 171.883 41.689 172.039 41.8973C172.195 42.1057 172.43 42.2098 172.742 42.2098C173.081 42.2098 173.354 42.1057 173.562 41.8973C173.771 41.663 174.109 41.3114 174.578 40.8427C176.141 39.3322 177.846 38.577 179.695 38.577C181.57 38.577 183.133 38.8895 184.383 39.5145C185.633 40.1135 186.714 40.9468 187.625 42.0145C189.63 44.2802 190.633 46.9885 190.633 50.1395V77.2098C190.633 79.189 189.708 80.5822 187.859 81.3895C187.286 81.6499 186.674 81.7802 186.023 81.7802C185.398 81.7802 184.799 81.663 184.227 81.4286C183.654 81.1942 183.159 80.8687 182.742 80.452C181.831 79.5406 181.375 78.4598 181.375 77.2098V50.2567C181.375 48.9807 181.062 48.0041 180.438 47.327C179.318 46.1812 178.12 45.6083 176.844 45.6083C174.76 45.6083 173.315 46.4156 172.508 48.0302C172.247 48.551 172.117 49.1369 172.117 49.788V77.2098C172.117 78.4859 171.779 79.4494 171.102 80.1005ZM223.641 73.9286C224.63 73.9286 225.464 74.2802 226.141 74.9833C226.818 75.6864 227.156 76.5328 227.156 77.5223C227.156 78.4859 226.818 79.3062 226.141 79.9833C225.464 80.6604 224.63 80.9989 223.641 80.9989H214.422C211.245 80.9989 208.523 79.8661 206.258 77.6005C203.992 75.3348 202.859 72.6135 202.859 69.4364V50.2567C202.859 46.715 204.057 43.8895 206.453 41.7802C208.953 39.6447 212.391 38.577 216.766 38.577C221.089 38.577 224.5 39.6447 227 41.7802C229.422 43.9156 230.633 46.7671 230.633 50.3348V61.2723C230.633 62.5744 230.307 63.551 229.656 64.202C228.536 65.3218 227.312 65.8817 225.984 65.8817H212.117V69.3583C212.117 70.6864 212.443 71.663 213.094 72.288C214.24 73.3817 215.451 73.9286 216.727 73.9286H223.641ZM221.375 50.2567C221.375 48.9546 221.049 47.9781 220.398 47.327C219.253 46.1812 218.042 45.6083 216.766 45.6083C215.464 45.6083 214.474 45.9468 213.797 46.6239C212.677 47.7437 212.117 48.9546 212.117 50.2567V59.0458H221.375V50.2567ZM280.633 43.2645C280.633 41.9885 280.958 40.9989 281.609 40.2958C282.729 39.1499 283.966 38.577 285.32 38.577C286.622 38.577 287.586 38.9156 288.211 39.5927C289.331 40.7385 289.891 41.9624 289.891 43.2645V70.3348C289.891 73.7984 288.693 76.5848 286.297 78.6942C283.927 80.7515 280.893 81.7802 277.195 81.7802C272.977 81.7802 269.799 80.4781 267.664 77.8739C266.987 77.301 266.388 77.301 265.867 77.8739C263.68 80.4781 260.503 81.7802 256.336 81.7802C252.664 81.7802 249.643 80.7385 247.273 78.6552C244.826 76.5197 243.602 73.7072 243.602 70.2177V43.2645C243.602 41.9885 243.927 40.9989 244.578 40.2958C245.698 39.1499 246.935 38.577 248.289 38.577C249.591 38.577 250.555 38.9156 251.18 39.5927C252.299 40.7385 252.859 41.9624 252.859 43.2645V70.5692C252.859 71.8973 253.302 72.926 254.188 73.6552C255.073 74.3583 256.154 74.7098 257.43 74.7098C258.732 74.7098 259.839 74.3713 260.75 73.6942C261.661 72.9911 262.117 71.9494 262.117 70.5692V43.3036C262.117 42.0275 262.443 41.038 263.094 40.3348C264.214 39.189 265.451 38.6161 266.805 38.6161C268.107 38.6161 269.07 38.9416 269.695 39.5927C270.815 40.7645 271.375 42.0015 271.375 43.3036V70.5692C271.375 71.9494 271.818 72.9911 272.703 73.6942C273.615 74.3713 274.721 74.7098 276.023 74.7098C277.326 74.7098 278.419 74.3583 279.305 73.6552C280.19 72.926 280.633 71.8973 280.633 70.5692V43.2645ZM307.977 80.9989C307.013 80.9989 306.18 80.6604 305.477 79.9833C304.773 79.3062 304.422 78.6031 304.422 77.8739C304.422 77.1447 304.513 76.5718 304.695 76.1552C304.904 75.7124 305.177 75.3218 305.516 74.9833C306.219 74.2802 307.039 73.9286 307.977 73.9286H316.609C318.198 73.9286 319.474 73.4859 320.438 72.6005C321.401 71.689 321.883 70.5692 321.883 69.2411C321.883 67.913 321.518 66.8453 320.789 66.038C320.06 65.2046 319.161 64.6187 318.094 64.2802L311.062 62.327C308.641 61.5979 306.714 60.2437 305.281 58.2645C303.823 56.2593 303.094 54.1369 303.094 51.8973C303.094 49.6578 303.419 47.8088 304.07 46.3505C304.747 44.8921 305.646 43.6421 306.766 42.6005C309.083 40.439 311.948 39.3583 315.359 39.3583H324.891C325.88 39.3583 326.701 39.7098 327.352 40.413C328.003 41.09 328.328 41.9234 328.328 42.913C328.328 43.9025 328.003 44.7359 327.352 45.413C326.701 46.064 325.88 46.3895 324.891 46.3895H316.102C314.773 46.3895 313.732 46.7802 312.977 47.5614C312.247 48.3427 311.883 49.2671 311.883 50.3348C311.883 52.0015 312.807 53.2515 314.656 54.0848L322.312 56.3114C326.427 57.6916 329.161 60.2958 330.516 64.1239C330.958 65.426 331.18 66.9234 331.18 68.6161C331.18 70.3088 330.828 71.9234 330.125 73.4598C329.448 74.9963 328.536 76.3244 327.391 77.4442C324.969 79.814 322.117 80.9989 318.836 80.9989H307.977Z" fill="#61DCFB"/>
</svg>
